<mxfile host="65bd71144e">
    <diagram name="Page-1" id="4UMP4Y6CClmuQf2rIJ2r">
        <mxGraphModel dx="788" dy="617" grid="1" gridSize="10" guides="1" tooltips="1" connect="1" arrows="1" fold="1" page="1" pageScale="1" pageWidth="850" pageHeight="1100" math="0" shadow="0">
            <root>
                <mxCell id="0"/>
                <mxCell id="1" parent="0"/>
                <mxCell id="gvCItJDWQXn4-QA9SiaZ-11" value="" style="endArrow=classic;html=1;rounded=0;entryX=0;entryY=0.109;entryDx=0;entryDy=0;entryPerimeter=0;" parent="1" edge="1">
                    <mxGeometry width="50" height="50" relative="1" as="geometry">
                        <mxPoint x="380" y="110" as="sourcePoint"/>
                        <mxPoint x="260" y="110" as="targetPoint"/>
                    </mxGeometry>
                </mxCell>
                <mxCell id="gvCItJDWQXn4-QA9SiaZ-13" value="order-id" style="edgeLabel;html=1;align=center;verticalAlign=middle;resizable=0;points=[];" parent="gvCItJDWQXn4-QA9SiaZ-11" vertex="1" connectable="0">
                    <mxGeometry x="0.25" y="-3" relative="1" as="geometry">
                        <mxPoint y="-7" as="offset"/>
                    </mxGeometry>
                </mxCell>
                <mxCell id="gvCItJDWQXn4-QA9SiaZ-1" value="order-serviec" style="whiteSpace=wrap;html=1;aspect=fixed;" parent="1" vertex="1">
                    <mxGeometry x="180" y="50" width="80" height="80" as="geometry"/>
                </mxCell>
                <mxCell id="gvCItJDWQXn4-QA9SiaZ-3" value="message-broker" style="rounded=0;whiteSpace=wrap;html=1;" parent="1" vertex="1">
                    <mxGeometry x="380" y="40" width="120" height="460" as="geometry"/>
                </mxCell>
                <mxCell id="gvCItJDWQXn4-QA9SiaZ-4" value="packaing-service" style="whiteSpace=wrap;html=1;aspect=fixed;" parent="1" vertex="1">
                    <mxGeometry x="620" y="70" width="80" height="80" as="geometry"/>
                </mxCell>
                <mxCell id="gvCItJDWQXn4-QA9SiaZ-5" value="notification-service" style="whiteSpace=wrap;html=1;aspect=fixed;" parent="1" vertex="1">
                    <mxGeometry x="620" y="380" width="80" height="80" as="geometry"/>
                </mxCell>
                <mxCell id="gvCItJDWQXn4-QA9SiaZ-6" value="delivery-service" style="whiteSpace=wrap;html=1;aspect=fixed;" parent="1" vertex="1">
                    <mxGeometry x="620" y="210" width="80" height="80" as="geometry"/>
                </mxCell>
                <mxCell id="gvCItJDWQXn4-QA9SiaZ-8" value="" style="endArrow=classic;html=1;rounded=0;entryX=0;entryY=0.109;entryDx=0;entryDy=0;entryPerimeter=0;" parent="1" edge="1">
                    <mxGeometry width="50" height="50" relative="1" as="geometry">
                        <mxPoint x="260" y="70" as="sourcePoint"/>
                        <mxPoint x="380" y="70.13999999999999" as="targetPoint"/>
                    </mxGeometry>
                </mxCell>
                <mxCell id="gvCItJDWQXn4-QA9SiaZ-9" value="" style="endArrow=classic;html=1;rounded=0;entryX=0;entryY=0.109;entryDx=0;entryDy=0;entryPerimeter=0;" parent="1" edge="1">
                    <mxGeometry width="50" height="50" relative="1" as="geometry">
                        <mxPoint x="500" y="140" as="sourcePoint"/>
                        <mxPoint x="620" y="140" as="targetPoint"/>
                    </mxGeometry>
                </mxCell>
                <mxCell id="gvCItJDWQXn4-QA9SiaZ-10" value="" style="endArrow=classic;html=1;rounded=0;entryX=0;entryY=0.25;entryDx=0;entryDy=0;entryPerimeter=0;exitX=0.992;exitY=0.413;exitDx=0;exitDy=0;exitPerimeter=0;" parent="1" source="gvCItJDWQXn4-QA9SiaZ-3" target="gvCItJDWQXn4-QA9SiaZ-6" edge="1">
                    <mxGeometry width="50" height="50" relative="1" as="geometry">
                        <mxPoint x="500" y="310" as="sourcePoint"/>
                        <mxPoint x="620" y="310" as="targetPoint"/>
                        <Array as="points"/>
                    </mxGeometry>
                </mxCell>
                <mxCell id="gvCItJDWQXn4-QA9SiaZ-12" value="create-order" style="text;html=1;align=center;verticalAlign=middle;resizable=0;points=[];autosize=1;strokeColor=none;fillColor=none;" parent="1" vertex="1">
                    <mxGeometry x="265" y="48" width="90" height="30" as="geometry"/>
                </mxCell>
                <mxCell id="2" value="" style="endArrow=classic;html=1;exitX=1;exitY=0.783;exitDx=0;exitDy=0;exitPerimeter=0;" parent="1" source="gvCItJDWQXn4-QA9SiaZ-3" edge="1">
                    <mxGeometry width="50" height="50" relative="1" as="geometry">
                        <mxPoint x="497" y="406" as="sourcePoint"/>
                        <mxPoint x="620" y="400" as="targetPoint"/>
                        <Array as="points"/>
                    </mxGeometry>
                </mxCell>
                <mxCell id="4" value="" style="endArrow=classic;html=1;exitX=1;exitY=0.826;exitDx=0;exitDy=0;entryX=0;entryY=0.5;entryDx=0;entryDy=0;exitPerimeter=0;" parent="1" edge="1">
                    <mxGeometry width="50" height="50" relative="1" as="geometry">
                        <mxPoint x="620" y="450" as="sourcePoint"/>
                        <mxPoint x="500" y="450" as="targetPoint"/>
                    </mxGeometry>
                </mxCell>
                <mxCell id="6" value="" style="endArrow=classic;html=1;entryX=1;entryY=0.526;entryDx=0;entryDy=0;entryPerimeter=0;exitX=-0.037;exitY=0.888;exitDx=0;exitDy=0;exitPerimeter=0;" parent="1" edge="1" target="gvCItJDWQXn4-QA9SiaZ-3" source="gvCItJDWQXn4-QA9SiaZ-6">
                    <mxGeometry width="50" height="50" relative="1" as="geometry">
                        <mxPoint x="610" y="282" as="sourcePoint"/>
                        <mxPoint x="500" y="330" as="targetPoint"/>
                        <Array as="points"/>
                    </mxGeometry>
                </mxCell>
                <mxCell id="7" value="" style="endArrow=classic;html=1;exitX=-0.05;exitY=0.138;exitDx=0;exitDy=0;exitPerimeter=0;entryX=1;entryY=0.093;entryDx=0;entryDy=0;entryPerimeter=0;" parent="1" source="gvCItJDWQXn4-QA9SiaZ-4" target="gvCItJDWQXn4-QA9SiaZ-3" edge="1">
                    <mxGeometry width="50" height="50" relative="1" as="geometry">
                        <mxPoint x="550" y="210" as="sourcePoint"/>
                        <mxPoint x="510" y="100" as="targetPoint"/>
                    </mxGeometry>
                </mxCell>
                <mxCell id="8" value="Customer" style="shape=umlActor;verticalLabelPosition=bottom;verticalAlign=top;html=1;outlineConnect=0;" parent="1" vertex="1">
                    <mxGeometry x="30" y="70" width="30" height="60" as="geometry"/>
                </mxCell>
                <mxCell id="9" value="" style="endArrow=classic;html=1;entryX=0;entryY=0.5;entryDx=0;entryDy=0;" parent="1" target="gvCItJDWQXn4-QA9SiaZ-1" edge="1">
                    <mxGeometry width="50" height="50" relative="1" as="geometry">
                        <mxPoint x="80" y="90" as="sourcePoint"/>
                        <mxPoint x="140" y="70" as="targetPoint"/>
                    </mxGeometry>
                </mxCell>
                <mxCell id="11" value="" style="endArrow=classic;html=1;exitX=0;exitY=0.52;exitDx=0;exitDy=0;exitPerimeter=0;" parent="1" source="gvCItJDWQXn4-QA9SiaZ-3" target="8" edge="1">
                    <mxGeometry width="50" height="50" relative="1" as="geometry">
                        <mxPoint x="150" y="180" as="sourcePoint"/>
                        <mxPoint x="30" y="150" as="targetPoint"/>
                        <Array as="points">
                            <mxPoint x="40" y="279"/>
                        </Array>
                    </mxGeometry>
                </mxCell>
            </root>
        </mxGraphModel>
    </diagram>
</mxfile>